<svg width="24" height="24" viewBox="0 0 24 24" fill="none" xmlns="http://www.w3.org/2000/svg">
<rect width="24" height="24" fill="#1E1E1E"/>
<g clip-path="url(#clip0_0_1)">
<path d="M22 0H2C1.46957 0 0.960859 0.210714 0.585786 0.585786C0.210714 0.960859 0 1.46957 0 2L0 22C0 22.5304 0.210714 23.0391 0.585786 23.4142C0.960859 23.7893 1.46957 24 2 24H22C22.5304 24 23.0391 23.7893 23.4142 23.4142C23.7893 23.0391 24 22.5304 24 22V2C24 1.46957 23.7893 0.960859 23.4142 0.585786C23.0391 0.210714 22.5304 0 22 0V0ZM17.813 16.853V16.855C17.613 17.337 17.296 17.762 16.89 18.089C16.47 18.429 15.938 18.709 15.283 18.909C14.629 19.112 13.851 19.214 12.95 19.214H6.518V5.214H13.32C14.578 5.214 15.586 5.497 16.34 6.074C17.1 6.654 17.478 7.518 17.478 8.684C17.478 9.389 17.306 9.994 16.96 10.494C16.616 10.991 16.12 11.38 15.48 11.65V11.696C16.334 11.876 16.995 12.281 17.43 12.911C17.865 13.541 18.088 14.337 18.088 15.298C18.088 15.836 17.984 16.348 17.788 16.826L17.813 16.853Z" fill="#7634F9"/>
<path d="M15.037 13.405C14.627 13.03 14.051 12.847 13.307 12.847H8.98499V17.215H13.319C14.059 17.215 14.639 17.023 15.049 16.635C15.459 16.25 15.669 15.701 15.669 14.995C15.662 14.305 15.459 13.771 15.049 13.405H15.037V13.405ZM14.433 10.582H14.437C14.833 10.246 15.027 9.765 15.027 9.138C15.027 8.434 14.852 7.934 14.497 7.648C14.145 7.363 13.637 7.215 12.969 7.215H8.96899V11.078H12.969C13.552 11.078 14.049 10.908 14.433 10.582V10.582Z" fill="#7634F9"/>
</g>
<defs>
<clipPath id="clip0_0_1">
<rect width="24" height="24" fill="white"/>
</clipPath>
</defs>
</svg>
